<?xml version="1.0" standalone="no"?>
<!DOCTYPE svg PUBLIC "-//W3C//DTD SVG 20010904//EN"
 "http://www.w3.org/TR/2001/REC-SVG-20010904/DTD/svg10.dtd">
<svg version="1.0" xmlns="http://www.w3.org/2000/svg"
 width="632.000000pt" height="632.000000pt" viewBox="0 0 632.000000 632.000000"
 preserveAspectRatio="xMidYMid meet">

<g transform="translate(0.000000,632.000000) scale(0.100000,-0.100000)"
fill="#000000" stroke="none">
<path d="M3021 6119 c-150 -9 -272 -24 -406 -50 -110 -21 -289 -65 -320 -79
-11 -5 -38 -14 -60 -21 -37 -11 -109 -39 -261 -102 -65 -28 -212 -104 -284
-148 -25 -15 -69 -42 -98 -59 -28 -17 -58 -37 -65 -43 -6 -7 -32 -25 -57 -41
-150 -97 -430 -360 -577 -544 -98 -121 -233 -323 -297 -445 -25 -48 -51 -96
-56 -105 -21 -37 -100 -223 -100 -235 0 -7 -4 -17 -9 -22 -8 -9 -38 -99 -84
-250 -9 -27 -29 -117 -46 -200 -76 -376 -78 -767 -4 -1140 14 -71 28 -142 30
-158 3 -15 9 -30 14 -33 5 -3 9 -14 9 -24 0 -21 53 -195 75 -245 7 -16 27 -64
44 -107 28 -69 133 -283 164 -333 60 -99 193 -294 241 -355 197 -248 471 -494
731 -657 108 -68 294 -169 360 -195 22 -9 78 -33 125 -53 179 -75 447 -146
680 -180 156 -23 473 -31 640 -16 241 22 496 74 700 145 334 117 651 294 921
516 96 79 354 342 430 440 70 89 199 276 226 327 24 46 48 88 54 93 12 11 109
221 152 330 149 375 228 871 198 1239 -26 307 -65 506 -149 757 -77 230 -201
484 -324 668 -23 34 -56 83 -74 109 -72 108 -356 414 -489 527 -128 110 -341
255 -480 330 -151 81 -158 84 -360 168 -48 20 -156 55 -260 86 -272 79 -647
122 -934 105z m364 -139 c137 -12 354 -45 435 -67 30 -8 69 -18 85 -23 44 -11
227 -70 250 -80 11 -4 41 -17 67 -29 26 -12 50 -21 52 -21 11 0 226 -109 296
-150 352 -205 667 -498 898 -834 128 -186 195 -310 292 -541 4 -11 15 -36 24
-56 20 -47 69 -205 107 -349 85 -323 92 -832 17 -1185 -10 -49 -21 -105 -25
-123 -3 -18 -10 -35 -14 -38 -5 -3 -9 -13 -9 -23 0 -22 -53 -197 -74 -244 -7
-18 -24 -57 -36 -87 -33 -83 -118 -255 -168 -340 -45 -76 -185 -284 -206 -305
-6 -7 -29 -34 -51 -61 -44 -53 -112 -131 -159 -182 -39 -43 -273 -245 -346
-299 -252 -187 -580 -348 -880 -433 -25 -7 -54 -16 -65 -20 -22 -9 -78 -20
-250 -51 -269 -47 -678 -47 -925 1 -140 26 -217 43 -235 50 -11 4 -38 13 -60
19 -84 23 -181 54 -215 68 -19 8 -45 19 -57 24 -13 5 -33 13 -45 18 -145 58
-382 190 -528 294 -231 164 -509 435 -630 613 -8 12 -41 59 -72 104 -32 45
-58 83 -58 85 0 2 -18 33 -41 71 -38 62 -125 232 -162 314 -42 96 -115 315
-146 440 -91 371 -99 816 -21 1210 33 169 111 418 175 555 72 158 110 233 129
260 12 17 28 45 35 63 8 17 17 32 22 32 5 0 9 5 9 11 0 14 146 222 185 263 6
6 41 48 78 93 240 290 660 595 1022 742 41 17 76 31 98 41 27 12 147 51 242
78 283 83 646 118 960 92z"/>
<path d="M3005 5949 c-126 -7 -233 -20 -325 -38 -201 -40 -424 -102 -447 -124
-3 -4 -14 -7 -23 -7 -20 0 -80 -25 -197 -81 -45 -21 -84 -39 -86 -39 -4 0 -76
-40 -217 -121 -14 -8 -27 -16 -30 -19 -3 -3 -25 -19 -50 -35 -24 -17 -51 -35
-60 -42 -8 -6 -53 -40 -100 -74 -89 -66 -368 -338 -435 -424 -22 -27 -42 -52
-45 -55 -9 -7 -122 -168 -145 -207 -101 -165 -197 -353 -244 -478 -13 -33 -27
-69 -32 -80 -33 -77 -90 -292 -124 -469 -39 -207 -44 -620 -10 -852 31 -212
103 -483 156 -586 5 -10 9 -25 9 -33 0 -8 4 -23 10 -33 5 -9 34 -69 63 -132
79 -169 249 -444 324 -525 10 -11 34 -40 53 -65 43 -57 276 -291 355 -357 142
-118 406 -291 540 -352 28 -13 73 -34 100 -47 107 -49 328 -126 435 -151 36
-8 83 -19 105 -24 286 -72 761 -80 1070 -20 130 26 155 31 230 51 86 23 191
56 215 69 8 4 43 16 77 27 35 10 63 22 63 27 0 4 6 7 13 7 18 0 67 24 67 33 0
4 7 7 15 7 33 0 260 128 405 228 52 36 97 68 100 72 3 3 38 32 78 64 108 85
325 304 404 406 151 196 240 340 338 545 75 157 72 149 110 260 162 464 201
956 111 1415 -30 157 -54 257 -76 321 -14 41 -37 107 -50 147 -38 112 -119
280 -211 437 -49 85 -176 271 -219 324 -117 141 -313 335 -432 429 -88 69
-252 181 -350 240 -86 51 -295 150 -383 182 -19 6 -44 16 -55 20 -31 13 -134
46 -195 63 -116 32 -138 37 -162 37 -13 0 -28 4 -34 9 -5 5 -27 11 -49 14
-296 39 -459 47 -660 36z m520 -104 c122 -17 257 -42 295 -54 14 -5 45 -14 70
-21 57 -16 235 -77 275 -94 152 -66 226 -102 345 -170 77 -44 244 -155 282
-188 15 -13 55 -45 90 -73 147 -117 364 -355 487 -535 25 -36 48 -67 51 -70 3
-3 11 -16 17 -30 7 -14 26 -47 43 -75 44 -72 144 -276 181 -370 40 -102 89
-255 89 -278 0 -9 4 -25 9 -35 14 -27 28 -98 52 -253 18 -116 23 -189 23 -379
1 -288 -13 -435 -62 -645 -92 -390 -309 -812 -576 -1120 -128 -148 -316 -323
-436 -405 -19 -14 -44 -32 -54 -42 -11 -10 -25 -18 -32 -18 -7 0 -14 -3 -16
-8 -4 -10 -99 -72 -164 -108 -94 -52 -305 -154 -318 -154 -6 0 -16 -4 -22 -8
-29 -26 -393 -131 -524 -151 -274 -43 -490 -50 -721 -26 -227 24 -273 33 -459
85 -176 50 -411 144 -540 217 -25 14 -65 37 -90 50 -60 34 -224 145 -228 155
-2 4 -8 8 -14 8 -5 0 -65 47 -131 104 -157 133 -309 292 -397 413 -19 26 -38
50 -41 53 -3 3 -30 41 -59 85 -173 264 -299 540 -365 805 -3 14 -12 48 -19 75
-21 78 -49 240 -60 350 -30 275 -4 610 70 915 8 36 18 77 21 93 3 15 9 30 14
33 5 3 9 15 9 28 0 12 3 25 6 29 3 3 19 43 35 89 30 85 34 95 100 234 58 124
229 404 250 412 5 2 9 8 9 13 0 6 9 20 21 32 12 12 28 33 38 47 40 61 279 306
365 375 28 22 58 48 68 57 32 31 240 172 333 226 100 57 345 172 369 172 8 0
17 4 20 8 2 4 47 21 98 36 51 16 102 32 113 37 11 4 34 10 50 14 17 3 48 10
70 15 279 67 672 86 960 45z"/>
<path d="M3300 5770 c-30 -28 -32 -34 -27 -75 l7 -45 -211 0 c-180 0 -210 -2
-216 -15 -9 -26 3 -31 89 -34 28 -1 42 -7 54 -26 24 -37 5 -55 -59 -55 l-50 0
6 -42 c12 -88 60 -121 165 -114 65 4 72 3 72 -14 0 -31 11 -50 30 -50 25 0 29
31 26 167 -1 62 1 118 5 124 9 15 85 17 99 3 7 -7 7 -52 1 -145 -6 -74 -6
-138 -2 -142 5 -5 17 -7 27 -5 17 3 20 17 26 108 4 58 10 125 13 149 l7 43 51
-5 c137 -15 147 -18 162 -48 32 -60 7 -104 -54 -97 -20 3 -44 8 -53 12 -25 11
-35 -20 -14 -43 9 -10 16 -31 16 -48 0 -16 10 -45 23 -64 19 -28 31 -35 76
-43 42 -7 55 -6 62 5 14 23 11 28 -28 35 -46 8 -83 39 -83 71 0 17 6 23 20 23
34 0 80 29 90 56 6 14 10 43 10 64 l0 40 63 -7 c34 -3 80 -14 102 -23 22 -9
61 -23 87 -30 26 -8 50 -20 52 -27 7 -17 -11 -16 -72 3 -43 14 -56 15 -82 4
-23 -10 -30 -19 -30 -40 0 -34 12 -44 75 -65 80 -26 105 -37 105 -46 0 -25
-140 17 -170 51 -21 24 -50 26 -50 3 0 -9 10 -27 22 -40 40 -43 25 -133 -23
-133 -27 0 -24 35 4 47 22 11 22 11 -7 18 -48 13 -73 -37 -40 -83 39 -56 124
-4 124 77 0 24 4 31 19 31 32 0 33 -16 10 -90 -13 -38 -20 -72 -16 -76 16 -16
35 9 57 75 23 70 24 71 59 71 45 0 60 10 66 41 3 13 12 29 21 36 17 12 13 43
-6 43 -6 0 -14 -9 -18 -19 -7 -20 -7 -20 -32 1 -17 14 -19 18 -7 14 14 -4 22
3 33 30 12 30 18 34 37 28 39 -12 52 -10 52 11 0 16 -23 28 -139 68 -84 29
-187 55 -260 67 -67 11 -145 25 -175 30 -30 6 -74 10 -97 10 -32 0 -49 6 -64
22 -26 28 -25 48 1 77 18 19 28 22 57 16 49 -9 88 -30 144 -76 53 -45 78 -50
78 -16 -1 29 -67 82 -162 129 -10 4 -42 8 -72 8 -46 0 -58 -4 -86 -30z m-192
-166 c20 -6 22 -12 22 -85 0 -77 -1 -79 -30 -94 -54 -28 -131 -17 -149 21 -10
22 -8 24 15 24 62 0 105 49 89 101 -5 14 -2 25 6 30 17 10 18 10 47 3z m788
-180 c22 -10 33 -19 26 -22 -18 -6 -102 18 -102 29 0 14 34 11 76 -7z"/>
<path d="M2320 5677 c-60 -28 -78 -73 -55 -134 13 -34 14 -47 5 -58 -17 -20
-4 -35 30 -35 19 0 30 -6 34 -17 2 -10 21 -71 41 -136 33 -107 38 -118 58
-115 28 4 26 29 -15 163 -16 55 -32 107 -35 115 -6 21 50 45 177 76 119 28
136 29 144 8 10 -27 7 -32 -26 -42 -18 -5 -59 -17 -91 -27 -64 -19 -87 -43
-87 -93 0 -44 46 -92 88 -92 35 0 95 38 100 64 2 10 1 29 -2 42 -9 36 -50 30
-54 -8 -4 -33 -22 -49 -49 -42 -22 6 -32 27 -26 55 4 17 54 35 126 45 l45 6
11 -58 c7 -33 15 -71 18 -86 4 -21 11 -28 28 -28 37 0 36 8 -6 185 -23 99 -23
110 5 123 32 14 35 42 4 42 -13 0 -50 -7 -83 -15 -85 -20 -104 -19 -98 4 6 22
-14 35 -85 57 -56 17 -167 17 -202 1z m173 -48 c63 -21 87 -32 87 -38 0 -4
-28 -13 -62 -20 -35 -8 -82 -22 -106 -33 -50 -22 -79 -17 -94 17 -17 38 -2 73
35 84 34 10 94 6 140 -10z"/>
<path d="M2025 5365 c-99 -51 -180 -99 -180 -106 0 -8 -9 -15 -20 -17 -10 -3
-29 -11 -42 -19 -21 -14 -23 -14 -23 5 0 36 -24 45 -102 38 -178 -16 -285
-145 -194 -231 l34 -32 -124 -128 c-124 -129 -146 -165 -100 -165 17 0 47 23
99 75 41 42 78 72 81 66 3 -5 -6 -22 -21 -38 -47 -47 -56 -62 -60 -98 -4 -44
26 -75 75 -75 27 0 44 10 85 50 49 48 76 59 84 34 2 -6 -7 -26 -20 -45 -16
-23 -32 -35 -52 -37 -38 -5 -55 -19 -55 -47 0 -32 24 -49 57 -41 16 4 57 7 93
6 77 -1 107 19 96 65 -7 29 -14 30 -52 10 -15 -8 -30 -12 -32 -10 -2 2 6 24
18 49 18 39 20 51 11 79 -14 40 -65 71 -104 62 -25 -7 -38 -17 -84 -70 -10
-11 -26 -26 -35 -34 -15 -11 -18 -11 -18 0 0 13 54 74 94 107 21 17 20 25 -9
56 -14 15 -25 29 -25 32 0 9 44 64 51 64 11 0 111 -107 166 -177 26 -34 51
-41 71 -21 18 18 15 31 -20 69 -18 19 -55 61 -83 94 -27 33 -54 63 -60 67 -6
5 -5 14 3 25 7 10 15 25 18 33 3 8 23 26 46 40 22 14 48 30 57 35 50 31 91 70
91 87 0 13 5 18 14 15 8 -3 76 26 152 65 129 65 139 69 151 52 7 -10 12 -23
10 -28 -2 -5 -33 -25 -70 -44 -47 -24 -67 -40 -67 -53 0 -15 7 -19 35 -19 37
0 75 -31 75 -61 0 -23 -37 -49 -69 -49 -25 0 -91 61 -91 85 0 30 -33 20 -114
-36 -97 -68 -116 -90 -116 -135 0 -88 105 -121 169 -53 39 42 17 129 -28 114
-23 -7 -26 -17 -11 -45 7 -14 6 -23 -6 -34 -22 -22 -51 -20 -65 6 -10 18 -7
25 24 55 20 18 38 33 42 33 3 0 15 9 27 20 29 27 40 25 66 -10 64 -86 183 -75
222 21 15 34 8 67 -20 99 -20 23 -20 25 -3 37 26 20 35 13 74 -63 35 -67 60
-87 82 -65 7 7 -8 47 -51 135 -34 69 -62 129 -62 135 0 5 9 13 20 16 29 9 26
45 -2 44 -13 0 -104 -42 -203 -94z m-305 -174 c0 -6 -17 -22 -37 -38 -21 -15
-56 -42 -77 -60 -48 -40 -80 -42 -102 -8 -14 22 -15 28 -2 46 27 41 88 68 156
68 34 1 62 -3 62 -8z"/>
<path d="M4463 5395 c-13 -9 -26 -30 -31 -48 -7 -25 -13 -31 -30 -29 -30 4
-41 -26 -17 -44 22 -17 20 -21 -66 -155 -57 -89 -68 -113 -59 -125 26 -31 40
-18 132 126 56 88 88 121 88 90 0 -5 6 -10 13 -10 17 0 187 -129 187 -142 0
-6 -23 -39 -51 -74 -56 -71 -81 -80 -117 -41 -55 59 10 128 76 81 27 -19 52
-12 47 13 -2 10 -4 21 -4 24 -2 13 -69 39 -100 39 -48 0 -92 -45 -98 -103 -5
-43 -3 -49 28 -80 19 -18 42 -38 53 -44 16 -9 16 -13 5 -32 -12 -19 -12 -24 4
-36 25 -18 36 -12 77 43 19 26 40 52 45 58 6 6 19 23 30 39 11 15 30 39 42 54
20 25 22 25 40 8 11 -9 25 -17 31 -17 7 0 12 -4 12 -9 0 -5 23 -33 51 -61 35
-36 48 -55 41 -62 -7 -7 -21 -4 -45 11 -38 23 -89 28 -104 9 -6 -7 -13 -24
-16 -38 -4 -14 -20 -33 -37 -42 -24 -14 -30 -24 -30 -51 0 -45 46 -108 97
-130 35 -16 39 -22 35 -48 -4 -25 -1 -29 20 -29 16 0 51 28 118 95 52 52 98
95 103 95 5 0 15 -7 23 -15 21 -21 44 -19 44 4 0 22 -254 281 -276 281 -8 0
-14 6 -14 14 0 7 -34 40 -76 72 -42 33 -97 76 -123 97 -25 21 -65 47 -88 59
-23 11 -44 30 -47 41 -9 34 15 72 48 75 50 6 97 -54 147 -186 9 -25 17 -32 33
-30 17 2 21 9 18 36 -4 52 -47 133 -96 181 -38 37 -52 44 -93 48 -34 3 -55 0
-70 -12z m377 -592 l41 -36 27 26 c34 33 39 33 63 5 19 -21 19 -21 -38 -80
-78 -80 -84 -83 -136 -60 -50 23 -80 54 -75 79 5 28 41 27 68 -2 30 -32 50
-32 50 0 0 23 -34 65 -52 65 -4 0 -8 9 -8 20 0 29 15 25 60 -17z"/>
<path d="M2810 5189 c-19 -10 -63 -37 -98 -59 -81 -51 -148 -71 -211 -63 -40
5 -59 1 -105 -22 -31 -15 -56 -31 -56 -35 0 -5 -9 -11 -19 -15 -11 -3 -52 -30
-93 -60 -71 -53 -167 -95 -216 -95 -55 0 -100 -46 -117 -121 -8 -31 -61 -99
-79 -99 -16 0 -68 -57 -86 -94 -10 -19 -15 -61 -15 -127 l0 -98 -57 -6 -56 -7
-1 -151 c-1 -83 -4 -153 -6 -156 -3 -2 -31 4 -62 14 -32 9 -67 18 -78 19 -20
1 -20 -5 -20 -844 l0 -845 196 -3 197 -2 34 -43 c19 -23 49 -63 67 -89 17 -27
38 -48 45 -48 7 0 39 18 70 40 l58 41 38 -33 c21 -18 41 -41 45 -50 6 -16 -14
-57 -42 -86 -21 -22 -27 -62 -12 -77 8 -7 34 -27 59 -44 25 -17 71 -50 103
-72 32 -22 64 -38 72 -35 8 2 30 30 49 60 20 31 39 56 43 56 5 0 31 -13 58
-28 48 -27 50 -29 47 -67 -2 -22 -7 -44 -12 -50 -5 -6 -10 -24 -12 -40 -3 -29
-1 -31 72 -56 41 -14 82 -28 90 -31 67 -27 114 -37 125 -28 7 6 21 40 31 76
l19 64 45 -5 c95 -13 89 -6 92 -93 l3 -77 151 -3 151 -3 6 29 c3 15 3 46 1 67
-7 55 9 71 78 78 63 6 57 11 90 -88 7 -22 17 -43 22 -47 9 -6 92 14 131 32 11
5 50 19 88 31 77 24 80 30 47 119 -19 52 -19 56 -3 68 10 7 28 15 41 19 12 3
22 9 22 13 0 4 9 10 20 13 21 5 52 -25 87 -83 9 -17 24 -30 33 -30 8 0 49 26
90 56 41 31 92 68 113 82 20 13 37 31 37 39 0 8 -18 41 -41 74 l-40 60 47 44
c26 25 52 41 58 38 6 -4 32 -22 57 -40 26 -18 53 -33 60 -33 12 0 28 20 107
129 37 52 32 51 238 51 l194 0 -2 631 -3 631 -112 62 c-91 49 -113 65 -113 83
0 12 -4 25 -10 28 -5 3 -10 17 -10 29 0 40 -20 48 -80 30 -67 -20 -101 -8
-130 47 -11 22 -20 42 -20 44 0 3 25 21 56 41 30 19 58 42 61 49 5 14 -36 78
-126 198 -19 26 -43 47 -53 47 -10 0 -40 -16 -67 -35 -26 -19 -53 -35 -58 -35
-13 0 -93 77 -93 88 0 5 8 17 18 28 33 38 62 83 62 98 0 8 -30 36 -67 63 -38
26 -70 50 -73 53 -12 15 -86 60 -98 60 -14 0 -49 -38 -67 -74 -19 -37 -39 -41
-89 -15 -55 27 -71 43 -59 61 4 7 15 36 24 63 21 61 18 65 -76 94 -38 12 -79
26 -90 30 -43 19 -103 33 -113 28 -5 -4 -17 -32 -26 -64 -24 -85 -22 -84 -94
-70 l-62 12 0 72 c0 59 -3 74 -17 80 -10 4 -82 7 -160 5 l-143 -3 0 -78 0 -79
-37 -5 c-21 -3 -51 -9 -68 -12 -30 -6 -30 -5 -54 69 -24 79 -36 89 -79 67 -25
-12 -109 -41 -174 -59 -32 -9 -59 -21 -61 -27 -3 -5 4 -35 14 -65 27 -83 26
-87 -37 -118 l-56 -27 -21 26 c-51 62 -57 70 -57 79 0 24 -43 6 -121 -49 -46
-33 -95 -69 -109 -80 -14 -12 -28 -21 -32 -21 -12 0 3 -32 39 -83 18 -26 33
-52 33 -58 0 -16 -72 -89 -88 -89 -7 0 -34 16 -59 35 -63 48 -81 45 -122 -17
-29 -45 -35 -49 -43 -33 -6 10 -8 43 -4 77 5 51 3 60 -13 66 -18 7 -18 9 -2
57 9 28 28 74 44 103 15 28 25 52 21 52 -3 0 1 6 8 13 7 8 30 16 50 20 53 8
169 79 211 129 20 24 44 51 53 61 13 16 25 17 78 12 100 -11 396 24 396 47 0
5 9 8 20 8 36 0 141 60 190 109 36 36 48 57 54 90 10 67 -13 158 -49 195 -22
22 -82 20 -125 -5z m-763 -486 c-9 -9 -20 -13 -24 -9 -4 4 -1 11 7 16 25 16
35 11 17 -7z m1193 -78 c0 -85 -10 -77 115 -96 160 -24 160 -24 173 5 7 15 12
33 12 39 0 25 25 67 40 67 24 0 99 -25 110 -36 8 -8 5 -28 -10 -68 -12 -31
-19 -63 -16 -71 5 -14 217 -125 239 -125 7 0 30 25 51 55 22 30 41 55 43 55
14 0 103 -75 103 -87 0 -9 -16 -35 -35 -59 -19 -23 -35 -48 -35 -54 0 -11 184
-200 195 -200 3 0 30 18 59 40 29 22 56 40 59 40 4 0 26 -26 49 -57 30 -40 39
-58 29 -61 -7 -2 -38 -25 -69 -50 l-56 -45 -30 17 c-17 10 -67 38 -111 61 -44
24 -107 59 -139 79 -99 60 -97 63 -89 -125 l6 -161 -24 7 c-13 4 -41 16 -61
26 -21 11 -42 19 -48 19 -5 0 -29 9 -53 19 -23 11 -112 47 -197 81 -85 34
-191 77 -235 95 -154 64 -209 85 -222 85 -18 0 -16 -21 7 -104 11 -39 25 -89
31 -111 6 -22 16 -57 21 -78 18 -62 32 -64 -227 35 -173 66 -167 64 -195 76
-104 45 -447 174 -465 176 -18 1 -20 -4 -16 -59 2 -33 9 -109 16 -170 7 -63 9
-114 4 -119 -5 -6 -61 8 -141 34 -73 24 -135 45 -137 46 -1 2 4 17 13 35 9 18
16 37 16 44 0 13 -65 68 -92 78 -25 9 -23 18 13 63 17 22 34 46 39 54 7 11 19
7 67 -25 32 -22 61 -41 64 -43 7 -3 199 185 199 194 0 3 -18 31 -40 63 -22 31
-40 60 -40 64 0 3 12 13 28 21 15 8 37 24 49 35 23 22 53 19 53 -4 0 -7 4 -15
8 -17 4 -1 18 -18 31 -35 12 -18 28 -33 36 -33 7 0 63 25 124 56 123 62 122
61 95 145 -19 58 -15 65 43 86 70 24 77 20 98 -53 l20 -65 40 4 c105 12 221
30 228 37 4 4 9 33 11 66 2 32 4 65 5 72 1 8 22 12 71 12 l70 0 0 -75z m-1325
-79 c-5 -22 -13 -36 -22 -36 -10 0 -12 6 -8 20 9 27 -10 25 -29 -2 -11 -15
-16 -17 -16 -8 1 22 24 48 51 59 31 11 32 10 24 -33z m-138 -138 c-2 -24 -4
-7 -4 37 0 44 2 63 4 43 2 -21 2 -57 0 -80z m38 -48 c-3 -5 -11 -10 -16 -10
-6 0 -7 5 -4 10 3 6 11 10 16 10 6 0 7 -4 4 -10z m-35 -20 c0 -5 -7 -10 -15
-10 -8 0 -15 5 -15 10 0 6 7 10 15 10 8 0 15 -4 15 -10z m72 -147 c1 -43 3
-107 5 -143 1 -36 0 -85 -3 -109 l-6 -43 -41 6 c-23 4 -46 11 -51 17 -6 5 -18
9 -28 9 -10 0 -28 5 -41 12 -12 6 -29 14 -37 18 -12 6 -15 32 -15 141 0 74 2
142 4 152 3 15 16 17 107 17 l104 0 2 -77z m640 -254 c73 -28 147 -57 163 -64
17 -7 48 -19 70 -26 22 -7 44 -17 49 -21 6 -4 16 -8 23 -8 7 0 32 -9 56 -20
23 -10 103 -42 177 -70 74 -28 159 -60 188 -72 29 -11 56 -17 59 -14 6 5 -6
66 -25 136 -36 127 -52 193 -50 200 2 5 37 -5 78 -22 41 -17 84 -34 95 -38 11
-4 36 -15 55 -23 19 -9 82 -34 140 -57 58 -23 120 -48 137 -56 18 -8 63 -26
100 -40 38 -14 82 -31 98 -38 124 -53 116 -62 108 107 -4 90 -2 146 4 150 5 3
50 -17 99 -44 49 -28 114 -64 144 -81 30 -17 105 -59 165 -93 157 -89 170 -96
270 -150 50 -26 98 -55 108 -63 16 -14 17 -51 15 -566 l-3 -551 -1647 -3
-1648 -2 0 746 0 746 28 -6 c26 -7 566 -180 719 -232 39 -13 81 -24 93 -24 21
0 22 3 16 38 -4 20 -11 78 -16 127 -6 50 -13 111 -16 138 -4 30 -3 47 4 47 6
0 70 -23 144 -51z m-582 -45 c0 -8 -7 -14 -15 -14 -10 0 -15 10 -15 26 0 22 2
25 15 14 8 -7 15 -19 15 -26z m145 -1599 c-46 -37 -66 -41 -87 -15 -10 12 -18
26 -18 31 0 5 30 9 68 9 l67 0 -30 -25z m2135 17 c0 -4 -36 -43 -80 -87 -44
-44 -80 -84 -80 -88 0 -5 16 -31 35 -57 19 -26 35 -54 35 -62 0 -14 -82 -78
-99 -78 -5 0 -27 25 -50 55 -23 30 -43 55 -45 55 -15 0 -246 -124 -246 -132 0
-6 10 -38 22 -70 12 -34 17 -62 12 -67 -9 -8 -110 -41 -125 -41 -5 0 -9 9 -9
19 0 11 -4 22 -9 25 -4 3 -11 18 -14 33 -3 16 -12 36 -19 45 -12 16 -21 16
-143 -5 l-130 -23 -3 -77 -3 -77 -69 0 c-65 0 -70 2 -75 23 -4 13 -5 34 -4 48
1 13 1 38 1 54 l-2 30 -107 19 c-173 30 -164 33 -188 -46 -22 -75 -23 -76
-100 -49 -49 18 -50 19 -48 57 2 21 7 42 13 48 5 5 10 24 9 41 0 28 -7 33
-111 85 -61 30 -114 56 -118 58 -9 3 -26 -14 -54 -52 -47 -65 -42 -61 -67 -48
-13 7 -39 25 -57 40 l-33 27 42 63 43 64 -82 79 c-45 44 -82 84 -82 89 0 6
374 10 1020 10 561 0 1020 -3 1020 -8z m200 3 c0 -16 -35 -55 -49 -55 -9 0
-32 14 -51 30 l-35 29 68 1 c37 0 67 -2 67 -5z"/>
<path d="M3250 3610 c0 -15 -42 -60 -57 -60 -7 0 -13 -8 -13 -18 0 -10 -5 -23
-11 -29 -7 -7 -4 -21 11 -46 22 -36 20 -57 -4 -57 -21 0 -36 -47 -36 -112 0
-42 -5 -67 -16 -79 -11 -12 -15 -37 -15 -88 0 -82 14 -140 40 -173 17 -21 27
-23 99 -23 85 1 97 6 120 59 18 41 28 191 14 219 -6 12 -12 58 -14 101 -3 68
-7 81 -25 93 l-22 15 20 40 20 39 -29 37 c-15 20 -36 49 -45 65 -17 27 -37 36
-37 17z m-2 -102 c-3 -27 1 -33 17 -33 15 0 20 7 20 28 -1 32 6 34 23 6 9 -13
10 -25 3 -32 -5 -7 -13 -28 -18 -47 -13 -49 -46 -53 -66 -8 -26 58 -26 66 -6
92 26 34 30 33 27 -6z m-18 -388 c0 -5 -4 -12 -10 -15 -5 -3 -10 -24 -10 -45
0 -21 5 -42 10 -45 15 -9 12 -35 -4 -35 -24 0 -36 26 -39 88 -2 49 0 62 12 65
20 4 41 -3 41 -13z"/>
<path d="M1914 3495 c-77 -24 -99 -40 -133 -96 -37 -61 -22 -157 33 -202 11
-9 36 -24 54 -33 17 -9 32 -20 32 -24 0 -4 -36 -10 -79 -11 -44 -2 -82 -7 -86
-10 -13 -14 10 -94 39 -138 21 -31 49 -56 86 -76 53 -29 60 -30 180 -30 111 0
130 3 172 23 96 47 138 127 117 223 -12 56 -35 84 -104 125 l-40 23 40 2 c22
1 45 3 50 4 6 2 18 3 29 4 16 1 18 7 13 46 -12 85 -73 146 -170 172 -64 16
-178 15 -233 -2z m229 -71 c50 -17 102 -58 92 -74 -10 -17 -53 -11 -67 8 -34
48 -115 69 -195 52 -63 -14 -83 -34 -83 -80 0 -61 30 -78 234 -125 87 -20 119
-43 136 -96 13 -37 12 -45 -6 -77 -27 -51 -63 -73 -140 -87 -114 -22 -251 14
-284 74 -14 28 -13 38 7 46 13 4 28 -5 53 -33 48 -54 75 -66 150 -65 99 0 160
39 160 102 -1 64 -35 88 -175 119 -114 25 -140 35 -170 68 -30 32 -33 88 -7
121 45 58 193 82 295 47z m-49 -93 c10 -11 16 -26 14 -34 -3 -12 -11 -12 -63
0 -66 17 -81 26 -71 42 12 19 101 13 120 -8z m-59 -220 c43 -11 82 -24 87 -29
17 -17 -4 -41 -42 -47 -62 -11 -109 3 -131 39 -22 37 -24 56 -5 56 7 0 48 -9
91 -19z"/>
<path d="M2590 3496 c-101 -28 -169 -82 -206 -164 -35 -76 -37 -205 -5 -278
58 -131 189 -195 372 -181 124 10 213 60 267 150 28 47 35 69 39 135 12 173
-67 287 -236 338 -56 17 -170 17 -231 0z m215 -67 c59 -15 130 -67 157 -114
31 -53 33 -191 4 -245 -22 -42 -68 -84 -116 -107 -51 -25 -242 -25 -287 0 -51
28 -102 76 -120 116 -23 47 -23 171 0 222 22 49 89 105 146 123 56 17 162 20
216 5z"/>
<path d="M2617 3395 c-53 -18 -81 -47 -107 -108 -45 -103 -10 -232 77 -288 40
-25 57 -29 115 -29 141 0 218 79 218 223 0 134 -81 218 -209 217 -31 -1 -73
-7 -94 -15z m169 -66 c44 -22 66 -70 65 -140 -1 -108 -48 -154 -154 -153 -59
1 -62 2 -99 44 -36 40 -38 46 -38 111 0 62 3 71 31 104 48 54 125 67 195 34z"/>
<path d="M3463 3503 c-10 -4 -13 -76 -13 -314 l0 -309 285 0 285 0 0 80 0 80
-186 0 -185 0 3 38 3 37 160 3 c112 2 161 6 167 15 12 19 9 132 -4 145 -8 8
-60 12 -170 12 -148 0 -158 1 -158 19 0 27 25 31 203 31 l157 0 0 79 c0 64 -3
80 -16 85 -19 7 -512 6 -531 -1z m467 -83 c0 -6 -67 -11 -167 -12 l-168 -3 0
-95 0 -95 153 -3 c205 -3 202 -22 -3 -22 l-155 0 0 -110 0 -110 174 0 c106 0
177 -4 181 -10 4 -7 -68 -10 -209 -10 l-216 0 0 233 c0 129 3 237 7 240 11 11
403 8 403 -3z"/>
<path d="M4227 3500 c-115 -29 -174 -100 -164 -197 7 -65 32 -102 91 -133 25
-13 46 -27 46 -32 0 -4 -33 -8 -72 -8 -98 0 -106 -6 -90 -67 19 -71 60 -124
122 -158 52 -28 61 -30 175 -30 135 0 178 11 231 58 49 42 64 77 64 145 0 77
-34 131 -105 167 l-50 25 40 1 c22 1 44 1 49 0 6 -1 21 0 34 4 23 6 24 9 17
53 -10 74 -48 120 -125 154 -52 23 -201 33 -263 18z m208 -71 c44 -11 109 -64
99 -80 -11 -18 -49 -8 -79 20 -16 16 -45 33 -64 38 -46 12 -159 -2 -182 -23
-26 -23 -32 -62 -15 -89 17 -25 69 -55 97 -55 10 0 28 -4 41 -9 13 -5 46 -14
73 -20 82 -20 131 -48 150 -87 28 -60 2 -123 -70 -162 -23 -13 -57 -17 -145
-17 -101 0 -119 3 -150 22 -68 42 -92 93 -46 93 16 0 32 -11 46 -30 55 -78
201 -90 280 -24 25 21 30 33 30 67 0 36 -5 45 -33 65 -32 21 -97 42 -181 57
-164 29 -212 161 -81 221 56 27 154 32 230 13z m-41 -98 c10 -11 16 -26 14
-34 -3 -12 -12 -12 -68 1 -76 18 -74 17 -67 37 10 23 99 21 121 -4z m-51 -222
c48 -12 87 -26 87 -33 -1 -32 -20 -41 -86 -41 -61 0 -68 2 -90 30 -26 32 -32
65 -11 65 6 0 51 -10 100 -21z"/>
<path d="M3428 2248 c-28 -10 -39 -37 -15 -39 6 0 30 -1 52 -2 29 -2 41 -7 43
-19 3 -14 -6 -19 -38 -24 -34 -6 -41 -10 -38 -28 2 -17 12 -22 53 -26 42 -4
51 -9 53 -27 4 -29 -33 -41 -57 -19 -10 9 -27 16 -38 16 -44 0 -56 -56 -14
-67 10 -2 25 -16 32 -30 14 -26 57 -53 83 -53 17 0 39 34 29 44 -3 3 -17 6
-30 6 -32 0 -29 22 7 42 38 22 48 60 24 96 -11 17 -17 42 -15 68 2 38 0 42
-32 58 -39 18 -59 19 -99 4z"/>
<path d="M2637 2233 c-4 -3 -7 -13 -7 -20 0 -10 13 -13 49 -12 73 4 105 -36
60 -77 -16 -14 -22 -15 -28 -5 -11 18 -62 10 -75 -12 -9 -15 -6 -23 21 -45 17
-15 34 -37 37 -48 13 -42 117 -60 124 -21 3 13 -3 17 -25 17 -59 0 -85 53 -34
67 26 7 53 65 45 98 -10 42 -50 65 -109 65 -28 0 -55 -3 -58 -7z"/>
<path d="M3152 2220 c-25 -24 -28 -48 -8 -75 12 -16 12 -22 -1 -42 -33 -51 7
-103 80 -103 39 0 57 -15 57 -47 0 -16 6 -23 19 -23 32 0 42 22 25 55 -8 16
-12 35 -9 43 16 43 -53 72 -77 32 -16 -24 -44 -26 -52 -3 -8 20 6 35 47 49 46
16 49 44 4 44 -20 0 -40 7 -48 16 -21 25 15 47 64 39 33 -6 37 -4 37 14 0 19
-6 21 -58 21 -45 0 -63 -5 -80 -20z"/>
<path d="M2912 2183 c-45 -40 -46 -128 -3 -167 26 -23 84 -31 121 -16 64 26
80 116 31 169 -25 27 -36 31 -79 31 -33 0 -56 -6 -70 -17z m107 -34 c19 -18
22 -29 18 -61 -6 -47 -5 -46 -44 -54 -61 -12 -97 66 -53 114 26 28 50 28 79 1z"/>
<path d="M5102 4683 c-8 -3 -11 -15 -7 -37 6 -30 3 -34 -75 -91 -45 -33 -95
-71 -111 -83 -30 -25 -38 -57 -16 -65 11 -4 151 87 185 120 8 8 27 20 43 28
27 14 30 14 41 -5 15 -24 48 -27 48 -4 0 13 -86 146 -93 143 -1 0 -8 -3 -15
-6z"/>
<path d="M5197 4464 c-18 -18 -6 -44 26 -52 39 -10 52 -56 18 -67 -29 -9 -61
12 -77 51 -8 19 -21 37 -29 40 -22 9 -75 -35 -92 -74 -20 -48 -3 -109 43 -153
41 -39 42 -51 9 -69 -27 -14 -30 -26 -15 -50 8 -13 30 -4 139 53 71 37 131 67
135 67 9 0 36 -57 36 -78 0 -13 -9 -22 -25 -26 -14 -4 -56 -20 -93 -37 -37
-18 -83 -37 -102 -44 -27 -9 -35 -18 -35 -36 0 -34 23 -34 96 -1 90 41 169 72
185 72 7 0 16 -9 19 -20 7 -22 45 -28 45 -7 0 22 55 77 76 77 26 0 44 -19 44
-46 0 -30 18 -40 37 -21 33 33 -22 127 -74 127 -20 0 -21 3 -13 26 36 93 -40
176 -121 133 -19 -10 -40 -21 -48 -25 -8 -4 -17 0 -23 9 -5 10 -17 17 -27 17
-14 0 -20 10 -24 46 -3 26 -13 54 -23 65 -21 20 -75 35 -87 23z m-61 -123 c35
-60 109 -76 155 -35 17 15 19 14 24 -9 9 -35 2 -43 -61 -72 -68 -31 -75 -31
-113 1 -44 37 -64 84 -52 117 13 35 26 34 47 -2z m364 -66 c16 -19 7 -68 -21
-106 -25 -35 -33 -32 -60 28 l-21 46 28 23 c31 28 56 30 74 9z"/>
<path d="M1020 4395 c0 -8 -3 -15 -8 -15 -4 0 -13 -15 -21 -32 -25 -62 -44
-103 -82 -183 -62 -132 -71 -157 -57 -166 15 -9 38 8 38 27 0 8 5 14 10 14 6
0 10 6 10 13 0 20 50 117 61 117 4 0 35 -13 67 -30 33 -16 64 -30 71 -30 18 0
25 -49 10 -77 -17 -32 -47 -43 -78 -30 -21 10 -23 16 -18 64 5 50 4 53 -18 53
-17 0 -26 -8 -34 -31 -23 -66 -2 -121 54 -139 67 -22 121 8 144 82 11 35 14
36 47 31 30 -5 34 -3 34 16 0 16 -17 29 -75 57 -84 40 -99 64 -70 108 35 54
110 21 103 -45 -2 -26 1 -34 16 -37 24 -5 36 14 36 56 0 67 -46 112 -116 112
-33 0 -94 -56 -94 -86 0 -29 -26 -42 -45 -23 -12 12 -9 25 20 84 40 82 43 105
15 105 -11 0 -20 -7 -20 -15z"/>
<path d="M822 3943 c-10 -18 -27 -91 -39 -161 -5 -31 -8 -33 -34 -27 -25 6
-36 0 -79 -42 -27 -26 -50 -54 -50 -60 0 -7 -4 -13 -10 -13 -5 0 -10 -8 -10
-18 0 -10 -5 -23 -12 -30 -6 -6 -12 -38 -12 -71 -1 -74 22 -101 93 -109 25 -3
50 -11 54 -18 12 -22 37 -16 46 10 l9 23 119 -18 c160 -25 173 -25 173 5 0 27
-10 31 -123 47 -40 5 -92 13 -117 17 l-45 7 1 60 c3 122 19 145 102 145 84 0
142 -53 97 -90 -21 -17 -50 -8 -53 17 -4 24 -23 35 -42 23 -9 -5 -11 -19 -6
-44 6 -29 14 -40 42 -54 34 -16 37 -15 72 3 26 14 40 31 49 58 28 84 -36 142
-154 142 -67 0 -70 3 -57 53 8 29 29 28 147 -2 138 -36 136 -35 152 -19 25 25
17 40 -27 51 -66 17 -169 40 -210 47 -34 6 -37 10 -40 43 -3 40 -22 53 -36 25z
m-76 -313 c-8 -35 -13 -67 -10 -72 10 -15 -8 -78 -22 -78 -8 0 -14 -4 -14 -10
0 -16 -42 -12 -62 7 -38 34 -15 100 64 186 31 34 54 53 56 45 1 -8 -4 -43 -12
-78z"/>
<path d="M5554 3645 c-4 -9 -4 -35 -1 -57 9 -64 -30 -118 -83 -118 -23 0 -40
34 -40 81 0 42 -3 49 -20 49 -10 0 -24 -9 -30 -20 -6 -11 -18 -20 -26 -20 -28
0 -73 -33 -85 -63 -17 -40 -1 -121 25 -125 17 -4 18 0 13 35 -5 29 -2 47 13
71 22 35 57 43 67 15 3 -10 17 -30 31 -45 29 -32 84 -38 116 -13 32 24 36 18
36 -45 l0 -60 -50 0 -50 0 -6 39 c-5 32 -10 38 -25 34 -14 -4 -19 -14 -19 -39
0 -40 -3 -43 -79 -50 -57 -6 -61 -9 -61 -32 l0 -25 78 6 c42 4 109 10 148 13
l72 7 7 -32 c5 -22 12 -31 26 -31 10 0 19 6 19 13 0 35 -33 366 -39 391 -8 34
-28 45 -37 21z"/>
<path d="M723 3353 c-7 -3 -13 -13 -13 -23 0 -22 -17 -36 -54 -46 -15 -4 -50
-28 -76 -55 -48 -49 -69 -94 -52 -111 12 -12 52 -1 52 13 0 33 89 129 121 129
3 0 9 -87 13 -192 9 -237 15 -282 38 -286 15 -3 18 7 20 74 3 90 21 109 38 42
7 -24 17 -49 22 -55 12 -15 74 -17 82 -4 4 5 27 9 52 9 27 0 53 6 61 15 32 31
35 107 8 194 -5 16 -3 25 9 29 9 3 16 15 16 27 0 19 -3 20 -155 13 l-155 -7 0
51 c0 34 5 52 14 56 8 3 77 6 153 7 135 2 138 3 141 25 2 12 0 23 -5 23 -4 1
-71 4 -148 8 -134 6 -140 7 -143 28 -4 25 -22 42 -39 36z m258 -318 c23 -40
25 -123 3 -132 -23 -8 -44 23 -44 63 0 36 -10 47 -34 38 -12 -5 -16 -20 -16
-66 0 -75 -21 -75 -34 0 -9 51 -10 51 -50 54 -38 3 -41 5 -44 35 -4 38 6 41
122 39 77 -1 80 -2 97 -31z"/>
<path d="M5595 3177 c-2 -6 -6 -38 -9 -71 -4 -32 -8 -62 -10 -65 -3 -4 -23 -5
-45 -3 -38 4 -41 6 -47 41 -10 59 -15 71 -30 71 -8 0 -14 5 -14 10 0 19 -53
10 -87 -16 -28 -21 -33 -31 -33 -68 0 -52 30 -86 78 -86 38 0 40 -4 34 -57
l-4 -43 -79 0 c-76 0 -79 -1 -79 -24 0 -22 3 -23 116 -30 164 -10 174 -13 174
-46 0 -33 26 -47 38 -22 5 9 12 69 16 132 3 63 9 151 12 196 6 70 4 82 -10 87
-10 4 -18 1 -21 -6z m-157 -104 c3 -31 1 -33 -27 -33 -24 0 -32 5 -37 24 -8
34 3 48 34 44 22 -2 28 -9 30 -35z m132 -143 l0 -50 -45 0 -45 0 0 50 0 50 45
0 45 0 0 -50z"/>
<path d="M774 2742 c-7 -4 -13 -15 -15 -24 -2 -10 -31 -39 -64 -66 -64 -51
-104 -123 -83 -149 17 -21 23 -16 53 42 26 52 75 105 96 105 6 0 5 -8 -1 -20
-6 -11 -14 -20 -18 -20 -11 0 -38 -49 -56 -100 -21 -61 -21 -116 1 -124 24
-10 31 2 42 70 13 83 38 141 53 126 23 -23 47 -14 50 20 3 31 6 33 63 45 61
13 103 24 175 45 33 9 40 16 40 36 0 28 9 29 -173 -12 -65 -14 -123 -24 -128
-21 -5 4 -9 17 -9 31 0 25 -7 29 -26 16z"/>
<path d="M5227 2728 c-7 -24 4 -35 43 -44 14 -3 41 -9 60 -14 19 -5 62 -14 95
-20 88 -18 88 -18 83 -44 -3 -14 -1 -31 3 -38 4 -7 4 -15 0 -18 -5 -3 -22 -43
-38 -90 -17 -47 -43 -112 -58 -146 -24 -54 -30 -60 -51 -56 -30 6 -30 18 1 94
14 34 25 67 25 74 0 23 -29 23 -55 -2 -20 -18 -32 -23 -53 -17 -52 13 -67 56
-29 90 32 29 63 34 110 17 47 -17 67 -13 67 14 0 36 -135 57 -194 31 -32 -15
-60 -82 -51 -125 8 -45 50 -84 90 -84 28 0 32 -3 28 -20 -10 -38 -25 -40 -103
-9 -89 34 -96 35 -103 9 -7 -26 -2 -28 141 -84 123 -48 123 -48 120 -79 -4
-43 27 -50 43 -10 7 15 17 42 24 58 54 130 116 310 112 325 -3 11 -1 20 4 22
11 4 41 156 33 169 -10 16 -33 9 -39 -12 -6 -19 -12 -21 -59 -16 -28 3 -94 15
-146 26 -52 12 -96 21 -96 21 -1 0 -4 -10 -7 -22z"/>
<path d="M1075 2586 c-16 -8 -72 -31 -124 -52 -89 -35 -95 -36 -107 -19 -7 10
-15 23 -17 28 -2 6 -11 8 -21 4 -18 -7 -17 -26 4 -72 5 -11 14 -33 20 -48 12
-34 43 -33 48 1 2 13 11 26 20 28 9 3 26 10 36 16 16 9 24 6 42 -17 12 -15 27
-24 33 -21 7 5 11 -3 11 -22 0 -29 -1 -30 -41 -25 -78 11 -113 -37 -90 -124
14 -52 50 -86 87 -81 36 4 38 28 4 45 -13 7 -30 20 -37 29 -18 25 -16 71 3 78
20 8 62 -18 71 -42 8 -22 23 -31 40 -25 10 4 12 17 7 53 -8 58 7 90 41 90 48
0 86 -100 50 -130 -8 -7 -15 -21 -15 -32 0 -29 28 -33 56 -8 46 44 25 157 -40
213 -21 19 -60 19 -113 2 -20 -7 -23 -4 -23 22 0 28 5 32 60 52 51 19 60 26
60 47 0 28 -19 31 -65 10z"/>
<path d="M1890 1426 c0 -25 -3 -46 -7 -46 -3 0 -21 12 -40 26 l-34 26 -25 -23
c-29 -27 -30 -40 -4 -64 32 -29 25 -45 -21 -45 l-40 0 3 -42 c3 -43 3 -43 46
-48 l44 -5 -26 -24 c-31 -29 -33 -52 -8 -74 26 -23 45 -21 72 8 29 31 40 24
40 -26 0 -39 0 -39 40 -39 l40 0 0 40 c0 45 16 52 45 20 23 -25 40 -25 65 0
26 26 25 32 -5 60 -34 32 -32 38 18 42 42 3 42 3 42 43 0 40 0 40 -42 43 -46
3 -53 12 -27 32 33 28 37 50 13 76 -29 30 -43 30 -67 -1 -28 -36 -40 -31 -44
18 -3 41 -4 42 -40 45 l-38 3 0 -45z"/>
<path d="M4373 1464 c-7 -3 -13 -23 -13 -45 0 -46 -8 -48 -40 -14 -29 31 -41
31 -70 0 l-23 -24 27 -31 c14 -17 26 -35 26 -40 0 -5 -19 -10 -42 -12 -46 -3
-55 -17 -44 -64 5 -20 12 -24 46 -24 22 0 40 -3 40 -7 0 -4 -12 -19 -27 -35
l-27 -28 24 -25 c29 -31 43 -31 74 0 14 14 27 25 30 25 3 0 6 -19 8 -42 3 -43
3 -43 46 -46 l42 -3 0 45 c0 25 3 46 8 46 4 0 18 -12 31 -25 29 -31 42 -31 71
0 l24 25 -27 28 c-35 36 -34 42 7 42 40 0 59 19 54 57 -3 25 -7 28 -45 31 -45
3 -52 11 -30 34 40 43 41 47 17 73 -30 32 -40 31 -76 -6 l-29 -31 -5 49 c-5
45 -7 48 -35 50 -16 1 -36 0 -42 -3z"/>
<path d="M2680 1291 c-9 -18 -6 -23 27 -40 21 -11 45 -28 53 -38 25 -32 42
-65 36 -70 -5 -5 -133 20 -190 38 -45 14 -86 11 -86 -6 0 -8 10 -17 23 -19 45
-10 163 -38 180 -42 10 -3 17 -15 17 -31 0 -25 -2 -25 -42 -19 -117 19 -132
19 -160 -4 -22 -17 -28 -30 -28 -60 0 -49 35 -80 89 -80 46 1 71 20 71 54 0
33 -31 36 -52 5 -19 -29 -58 -18 -58 16 0 28 24 44 54 38 117 -24 116 -22 92
-125 -12 -49 -12 -59 0 -69 9 -7 18 -8 23 -3 9 11 26 68 42 144 20 95 28 110
60 110 31 0 37 14 16 39 -8 9 -22 37 -31 64 -13 34 -29 55 -59 75 -65 44 -65
44 -77 23z"/>
<path d="M3585 1149 c-55 -10 -129 -23 -165 -30 -57 -11 -221 -13 -464 -6 -65
2 -87 -16 -42 -33 24 -9 26 -14 26 -75 0 -38 6 -78 15 -94 16 -33 60 -54 101
-49 26 3 29 0 32 -29 3 -27 8 -33 26 -33 23 0 24 3 31 131 8 147 8 148 84 133
l46 -9 11 -130 c7 -71 12 -131 13 -132 0 -2 10 -3 21 -3 18 0 20 7 20 69 0 37
-5 92 -10 121 -6 30 -8 61 -5 70 4 12 41 22 158 42 83 14 158 23 165 21 19 -8
14 -41 -8 -48 -11 -3 -27 -13 -35 -22 -13 -13 -21 -13 -45 -3 -63 26 -130 -22
-130 -94 0 -47 30 -103 61 -114 11 -4 41 -5 67 -2 37 4 48 9 50 25 2 18 -2 20
-42 17 -59 -5 -89 22 -84 76 2 30 8 38 31 46 24 9 31 6 60 -22 37 -36 52 -31
59 18 2 17 10 26 24 28 20 3 23 -4 35 -75 12 -68 17 -78 37 -81 14 -2 22 2 22
11 0 12 -17 123 -35 220 -4 22 0 30 20 39 14 6 25 17 25 25 0 18 -49 15 -175
-8z m-487 -124 c6 -70 -5 -103 -38 -110 -16 -3 -38 -1 -49 5 -18 9 -21 20 -21
74 0 34 3 66 7 70 4 4 28 6 53 4 45 -3 45 -3 48 -43z"/>
</g>
</svg>
